<svg xmlns="http://www.w3.org/2000/svg" width="1800" height="1200" viewBox="0 0 1800 1200"><defs><linearGradient id="bg" x1="0" y1="0" x2="1" y2="1"><stop offset="0%" stop-color="#08141b"/><stop offset="40%" stop-color="#103445"/><stop offset="78%" stop-color="#15485c"/><stop offset="100%" stop-color="#c99743"/></linearGradient><radialGradient id="g1" cx="80%" cy="18%" r="42%"><stop offset="0%" stop-color="#ffffff" stop-opacity=".24"/><stop offset="100%" stop-color="#ffffff" stop-opacity="0"/></radialGradient><radialGradient id="g2" cx="18%" cy="82%" r="38%"><stop offset="0%" stop-color="#ffffff" stop-opacity=".10"/><stop offset="100%" stop-color="#ffffff" stop-opacity="0"/></radialGradient></defs><rect width="1800" height="1200" fill="url(#bg)"/><rect width="1800" height="1200" fill="url(#g1)"/><rect width="1800" height="1200" fill="url(#g2)"/><ellipse cx="1430" cy="190" rx="170" ry="135" fill="#ffffff" opacity=".10"/><ellipse cx="1180" cy="520" rx="120" ry="90" fill="#ffffff" opacity=".08"/><circle cx="260" cy="940" r="230" fill="#ffffff" opacity=".06"/><path d="M0 885 C 240 805, 445 805, 650 878 C 860 954, 1045 962, 1260 915 C 1430 878, 1590 835, 1800 888 L1800 1200 L0 1200 Z" fill="#ffffff" opacity=".08"/><path d="M0 940 C 250 892, 455 915, 650 985 C 845 1054, 1040 1045, 1235 992 C 1420 942, 1590 915, 1800 962 L1800 1200 L0 1200 Z" fill="#ffffff" opacity=".05"/><text x="120" y="165" font-family="Arial" font-size="26" letter-spacing="8" fill="#f3d7a0">EEC BERN · HOME OF HOPE</text><text x="120" y="305" font-family="Arial" font-size="92" font-weight="700" fill="#ffffff">Grace for the weary.</text><text x="120" y="402" font-family="Arial" font-size="92" font-weight="700" fill="#ffffff">Peace for the heart.</text><text x="120" y="499" font-family="Arial" font-size="92" font-weight="700" fill="#ffffff">Hope in Jesus Christ.</text><text x="120" y="604" font-family="Arial" font-size="34" fill="#eef5f7">A welcoming church in Bern where people are loved, restored,</text><text x="120" y="650" font-family="Arial" font-size="34" fill="#eef5f7">strengthened in prayer, and renewed by the Word of God.</text><g transform="translate(1240 520)"><circle cx="0" cy="0" r="118" fill="rgba(255,255,255,.10)"/><circle cx="0" cy="0" r="84" fill="rgba(255,255,255,.08)"/><circle cx="0" cy="0" r="44" fill="rgba(255,255,255,.10)"/><polygon points="-10,-24 -10,24 28,0" fill="#ffffff"/></g></svg>