<svg xmlns="http://www.w3.org/2000/svg" width="1800" height="1200" viewBox="0 0 1800 1200"><defs><linearGradient id="bg" x1="0" y1="0" x2="1" y2="1"><stop offset="0%" stop-color="#0b1820"/><stop offset="40%" stop-color="#12384a"/><stop offset="75%" stop-color="#1a566c"/><stop offset="100%" stop-color="#c99544"/></linearGradient><radialGradient id="r1" cx="78%" cy="16%" r="42%"><stop offset="0%" stop-color="#ffffff" stop-opacity=".18"/><stop offset="100%" stop-color="#ffffff" stop-opacity="0"/></radialGradient><radialGradient id="r2" cx="15%" cy="84%" r="38%"><stop offset="0%" stop-color="#ffffff" stop-opacity=".10"/><stop offset="100%" stop-color="#ffffff" stop-opacity="0"/></radialGradient></defs><rect width="1800" height="1200" fill="url(#bg)"/><rect width="1800" height="1200" fill="url(#r1)"/><rect width="1800" height="1200" fill="url(#r2)"/><ellipse cx="1410" cy="170" rx="175" ry="135" fill="#ffffff" opacity=".08"/><ellipse cx="1180" cy="520" rx="120" ry="84" fill="#ffffff" opacity=".07"/><path d="M0 900 C 260 820, 470 822, 690 905 C 890 978, 1080 980, 1275 935 C 1450 895, 1605 855, 1800 905 L1800 1200 L0 1200 Z" fill="#ffffff" opacity=".07"/><text x="120" y="165" font-family="Arial, Helvetica, sans-serif" font-size="24" letter-spacing="8" fill="#f2d7a2">EEC BERN · HOME OF HOPE</text><text x="120" y="300" font-family="Arial, Helvetica, sans-serif" font-size="92" font-weight="700" fill="#ffffff">Come and find</text><text x="120" y="396" font-family="Arial, Helvetica, sans-serif" font-size="92" font-weight="700" fill="#ffffff">peace in God’s</text><text x="120" y="492" font-family="Arial, Helvetica, sans-serif" font-size="92" font-weight="700" fill="#ffffff">living presence</text><text x="120" y="592" font-family="Arial, Helvetica, sans-serif" font-size="34" fill="#eef5f7">A welcoming church in Bern where the Word of God is honored,</text><text x="120" y="638" font-family="Arial, Helvetica, sans-serif" font-size="34" fill="#eef5f7">hearts are restored in prayer, and lives are renewed through Jesus Christ.</text><g transform="translate(1125 380)"><rect x="0" y="0" width="270" height="300" rx="18" fill="rgba(255,255,255,.12)"/><rect x="18" y="20" width="234" height="260" rx="12" fill="rgba(255,255,255,.90)"/><path d="M135 54v194" stroke="#12384a" stroke-width="14" stroke-linecap="round"/><path d="M81 110h108" stroke="#12384a" stroke-width="14" stroke-linecap="round"/><rect x="48" y="220" width="174" height="26" rx="13" fill="#d2a25a"/></g></svg>