<svg xmlns="http://www.w3.org/2000/svg" viewBox="0 0 256 256" role="img" aria-label="EEC Bern logo">
  <defs>
    <linearGradient id="g" x1="0" y1="0" x2="1" y2="1">
      <stop offset="0" stop-color="#0b5fff"/>
      <stop offset="1" stop-color="#0a8a2a"/>
    </linearGradient>
  </defs>
  <rect x="16" y="16" width="224" height="224" rx="48" fill="url(#g)"/>
  <path d="M122 62c0-4 3-7 7-7h0c4 0 7 3 7 7v46h46c4 0 7 3 7 7v0c0 4-3 7-7 7h-46v46c0 4-3 7-7 7h0c-4 0-7-3-7-7v-46H76c-4 0-7-3-7-7v0c0-4 3-7 7-7h46V62z" fill="#ffffff" opacity="0.95"/>
  <path d="M62 186c22 10 44 15 66 15s44-5 66-15" fill="none" stroke="#ffffff" stroke-width="10" stroke-linecap="round" opacity="0.9"/>
</svg>
